<svg viewBox="0 0 73 73" fill="none" xmlns="http://www.w3.org/2000/svg">
<path fill-rule="evenodd" clip-rule="evenodd" d="M36.5 40C38.433 40 40 38.433 40 36.5C40 34.567 38.433 33 36.5 33C34.567 33 33 34.567 33 36.5C33 38.433 34.567 40 36.5 40ZM36.5 43C40.0899 43 43 40.0899 43 36.5C43 32.9101 40.0899 30 36.5 30C32.9101 30 30 32.9101 30 36.5C30 40.0899 32.9101 43 36.5 43Z" fill="#78716C"/>
<path fill-rule="evenodd" clip-rule="evenodd" d="M36.5 72C56.1061 72 72 56.1061 72 36.5C72 16.8939 56.1061 1 36.5 1C16.8939 1 1 16.8939 1 36.5C1 56.1061 16.8939 72 36.5 72ZM36.5 73C56.6584 73 73 56.6584 73 36.5C73 16.3416 56.6584 0 36.5 0C16.3416 0 0 16.3416 0 36.5C0 56.6584 16.3416 73 36.5 73Z" fill="#78716C"/>
<path fill-rule="evenodd" clip-rule="evenodd" d="M36.5 64C51.6878 64 64 51.6878 64 36.5C64 21.3122 51.6878 9 36.5 9C21.3122 9 9 21.3122 9 36.5C9 51.6878 21.3122 64 36.5 64ZM36.5 65C52.2401 65 65 52.2401 65 36.5C65 20.7599 52.2401 8 36.5 8C20.7599 8 8 20.7599 8 36.5C8 52.2401 20.7599 65 36.5 65Z" fill="#78716C"/>
<path fill-rule="evenodd" clip-rule="evenodd" d="M36.5001 50.8421C44.421 50.8421 50.8422 44.4209 50.8422 36.5C50.8422 28.5791 44.421 22.1579 36.5001 22.1579C28.5791 22.1579 22.158 28.5791 22.158 36.5C22.158 44.4209 28.5791 50.8421 36.5001 50.8421ZM36.5001 55.8421C47.1824 55.8421 55.8422 47.1824 55.8422 36.5C55.8422 25.8177 47.1824 17.1579 36.5001 17.1579C25.8177 17.1579 17.158 25.8177 17.158 36.5C17.158 47.1824 25.8177 55.8421 36.5001 55.8421Z" fill="#D6D3D1"/>
<path fill-rule="evenodd" clip-rule="evenodd" d="M36.5 60.3684C49.6822 60.3684 60.3684 49.6822 60.3684 36.5C60.3684 23.3178 49.6822 12.6316 36.5 12.6316C23.3178 12.6316 12.6316 23.3178 12.6316 36.5C12.6316 49.6822 23.3178 60.3684 36.5 60.3684ZM36.5 61.3684C50.2345 61.3684 61.3684 50.2344 61.3684 36.5C61.3684 22.7655 50.2345 11.6316 36.5 11.6316C22.7656 11.6316 11.6316 22.7655 11.6316 36.5C11.6316 50.2344 22.7656 61.3684 36.5 61.3684Z" fill="#D6D3D1"/>
<path fill-rule="evenodd" clip-rule="evenodd" d="M36.5 66C52.7924 66 66 52.7924 66 36.5C66 20.2076 52.7924 7 36.5 7C20.2076 7 7 20.2076 7 36.5C7 52.7924 20.2076 66 36.5 66ZM36.5 68C53.897 68 68 53.897 68 36.5C68 19.103 53.897 5 36.5 5C19.103 5 5 19.103 5 36.5C5 53.897 19.103 68 36.5 68Z" fill="#D6D3D1"/>
</svg>
