<?xml version="1.0" encoding="UTF-8"?>
<!DOCTYPE svg PUBLIC "-//W3C//DTD SVG 1.1//EN" "http://www.w3.org/Graphics/SVG/1.1/DTD/svg11.dtd">
<!-- Creator: CorelDRAW 2018 (64-Bit) -->
<svg xmlns="http://www.w3.org/2000/svg" xml:space="preserve" version="1.1" style="shape-rendering:geometricPrecision; text-rendering:geometricPrecision; image-rendering:optimizeQuality; fill-rule:evenodd; clip-rule:evenodd"
viewBox="0 0 479.94 774.12" fill="currentColor" 
 xmlns:xlink="http://www.w3.org/1999/xlink">
 <defs>
  <style type="text/css">
   <![CDATA[
    .fil0 {fill:black}
   ]]>
  </style>
 </defs>
 <g id="Layer_x0020_1">
  <metadata id="CorelCorpID_0Corel-Layer"/>
  <path class="fil0" d="M35.1 450.84c-7.08,-16.6 -10.38,-33.33 -9.44,-50.8 0.62,-11.41 2.11,-22.6 5.16,-33.61 3.96,-14.28 10.03,-27.72 15.55,-41.45l98.51 -245.23c0.98,-2.44 1.61,-4.37 2.92,-6.72l6.43 -13.2c3.23,-6.7 7.36,-13.24 11.61,-19.36 8.91,-12.82 21.93,-26.89 36.41,-33.07 10.81,-4.62 19.05,-7.34 30.42,-7.39 7.18,-0.03 13.65,1.04 20.64,2.44 4.72,0.95 8.73,2.39 13.09,4.14 8.51,3.41 16.56,7.07 24.12,12.56 19.22,13.94 27.98,36.08 25.73,59.45 -0.93,9.71 -2.58,19.09 -5.08,28.5l-5.85 18.24c-0.57,1.4 -0.57,1.69 -0.94,3.05 -0.31,1.13 -0.67,1.86 -1.13,2.98l-5.94 14.77c-4.9,13.72 -14.69,38.78 -20.56,51.79 -6.66,14.78 -12.32,30.08 -18.36,45.12 -12.64,31.46 -25.1,62.49 -37.74,93.96 -6.35,15.8 -12.52,31.17 -18.87,46.98 -13.84,34.46 -45.61,55.28 -82.04,40.65 -21.8,-8.76 -36.28,-28.75 -36.78,-52.69 -0.07,-3.25 -0.12,-6.44 0.28,-9.49 0.82,-6.15 2.21,-11.79 3.78,-17.7 1.75,-6.59 33.51,-83.97 36.36,-91.08 8.92,-22.21 17.67,-43.98 26.59,-66.18l19.94 -49.64c2.08,-5.17 3.69,-12.47 10.46,-15.36 6.62,-2.83 15.11,-0.15 17.96,6.53 3.47,8.13 0.68,11.54 -2.19,18.68 -26.66,66.38 -53.7,132.62 -80.01,199.14 -0.64,1.61 -0.62,2.38 -1.22,3.97 -3.33,8.74 -5.78,21.19 -1.8,30.5 3.68,8.63 7.51,12.13 15.07,16.3 6.82,3.76 15.85,5.26 23.57,1.97 9.23,-3.94 14.08,-8.91 19.01,-16.73 1.17,-1.86 2.64,-4.26 3.41,-6.18l2.78 -6.09c29.29,-74.13 59.42,-147.93 89.13,-221.9 3.47,-8.64 6.4,-16.91 9.92,-25.53 2.09,-5.13 3.64,-10.74 5.41,-16.01l3 -10.12c0.31,-1.29 0.54,-1.93 0.85,-3.09 4.99,-18.66 5.81,-39.48 -11.47,-52 -1.94,-1.4 -3.58,-2.5 -5.73,-3.69 -13.9,-7.65 -33.44,-13.84 -48.91,-7.24 -12.18,5.2 -20.11,12.09 -27.05,21.73 -5.62,7.81 -9.93,14.74 -14.17,23.13l-4.3 8.91c-0.73,1.36 -0.95,1.65 -1.55,3.15 -1.71,4.33 -3.53,7.95 -5.28,12.29l-100.29 249.67c-6.95,17.31 -12.04,33.9 -12.63,52.92 -1.08,35.13 17.74,63.92 51.31,75 1.22,0.4 1.52,0.32 2.78,0.78 1.38,0.5 1.61,0.61 3.05,0.96 3.89,0.93 8.07,2 12.14,2.23l6.38 0.35c2.37,0 4.17,-0.14 6.66,-0.34 22.85,-1.88 43.57,-20.53 54.55,-37.37 2.96,-4.54 5.78,-8.75 8.25,-13.5 0.91,-1.74 1.55,-3.07 2.52,-4.82 3.42,-6.16 5.72,-13.09 8.35,-19.64l90.91 -226.33c7.42,-18.63 33.95,-8.21 26.19,10.86 -1.46,3.58 -2.71,6.75 -4.15,10.34l-83.32 207.42c-3.11,7.74 -5.9,15.89 -9.65,23.23l-4.76 10.1c-2.83,6.02 -6.27,11.65 -9.94,17.28 -10.59,16.25 -27.35,34 -45.95,41.94 -10.29,4.39 -17.83,7.28 -28.83,8.57 -9.46,1.1 -18.1,0.82 -27.11,-0.84 -2.98,-0.55 -5.49,-1.17 -8.5,-1.9 -8.15,-1.96 -16.5,-5 -23.81,-9.07 -2.71,-1.5 -4.98,-2.54 -7.57,-4.23 -16.48,-10.75 -30.26,-24.1 -38.32,-42.99zm4.91 245.67c0.47,-3.3 3.52,-5.59 6.82,-5.12 3.3,0.47 5.59,3.52 5.12,6.82 -0,0.03 -1.63,10.38 11.72,12.14 7.66,1.01 26.98,-2.15 48.9,-6.86 29.25,-6.28 62.61,-15.32 79.58,-21.07 17.54,-5.95 32.55,-12.64 44.42,-10.86 4.37,0.65 10.27,2.61 13.22,4.11 3.79,1.92 7.46,4.13 8.58,7.42 0.77,2.27 1.73,6.79 1.73,8.98 -0.69,4.61 -0.77,9.48 -2.51,15.35 -2.06,6.95 -2.01,10.22 -1.71,11.11 1.12,3.37 11.3,-2.75 33.84,-8.96 31.97,-8.81 75.25,-23.08 93.53,-23.67 17.67,-0.57 30.02,4.92 37.45,11.67 7.65,6.95 12.42,26.94 13.31,36.49 0.05,0.49 0.15,1.68 0.26,2.9 1.25,14.07 -3.38,25.47 11.29,25.12 18.04,-0.43 23.05,-9.72 23.07,-9.75 1.63,-2.91 5.31,-3.94 8.21,-2.31 2.91,1.63 3.94,5.31 2.31,8.22 -0.02,0.04 -8.3,15.29 -33.31,15.89 -25.94,0.62 -28.3,-25.91 -29.96,-44.65 -0.07,-0.75 -0.13,-1.48 -0.26,-2.86 -0.64,-6.85 -2.7,-13.41 -7.74,-17.99 -5.25,-4.78 -14,-7.74 -28.1,-7.28 -16.87,0.55 -55.55,11.2 -86.9,19.84 -28.6,7.88 -51.8,14.27 -54.29,6.78 -1.5,-4.49 1,-12.92 3.59,-21.69 0.89,-3.01 2.03,-11.02 -1.45,-12.78 -1.77,-0.9 -4.31,-1.6 -7.45,-2.07 -10.26,-1.54 -21.63,-2.85 -37.26,2.45 -17.33,5.88 -51.27,15.07 -80.95,21.45 -23.03,4.95 -43.77,8.21 -52.96,7 -25.6,-3.37 -22.11,-25.72 -22.11,-25.78zm149.37 -194.96c-51.9,81.14 -111.25,145.9 -176.94,196.72 -18.2,-85.08 -16.17,-176.38 4.39,-273.38 1.68,10.21 4.68,20.19 8.86,29.97 8.78,20.56 23.66,35.49 42.14,47.54 2.67,1.74 5.42,3.06 8.18,4.6 8.17,4.54 17.3,7.89 26.38,10.07 3.01,0.73 5.99,1.45 9.04,2.02 10.11,1.87 19.94,2.13 30.16,0.94 11.83,-1.38 20.82,-4.69 31.66,-9.32 5.56,-2.37 10.96,-5.5 16.11,-9.16z"/>
 </g>
</svg>
