<?xml version="1.0" encoding="UTF-8"?>
<!DOCTYPE svg PUBLIC "-//W3C//DTD SVG 1.1//EN" "http://www.w3.org/Graphics/SVG/1.1/DTD/svg11.dtd">
<!-- Creator: CorelDRAW 2018 (64-Bit) -->
<svg xmlns="http://www.w3.org/2000/svg" xml:space="preserve" version="1.1" style="shape-rendering:geometricPrecision; text-rendering:geometricPrecision; image-rendering:optimizeQuality; fill-rule:evenodd; clip-rule:evenodd"
viewBox="0 0 12922.3 2776.11"
 xmlns:xlink="http://www.w3.org/1999/xlink">
 <defs>
  <style type="text/css">
   <![CDATA[
    .fil1 {fill:#1B449C}
    .fil0 {fill:#20C3F3}
    .fil2 {fill:#1B449C;fill-rule:nonzero}
   ]]>
  </style>
 </defs>
 <g id="Layer_x0020_1">
  <metadata id="CorelCorpID_0Corel-Layer"/>
  <g id="_1999961330352">
   <path class="fil0" d="M980.74 852.36c-14.27,62.31 -5.46,85.63 6.74,145.7 9.38,46.23 18.22,92.21 27.17,137.85 17.35,88.4 43.39,192.38 54.75,279.37l112.66 571.16c11.23,56.16 16.97,86.97 48.79,122.96 65.33,73.95 175.31,70.43 247.08,16.54 44.96,-33.76 132.25,-200.78 167.31,-262.06l400.64 -693.42c2.82,-4.83 -0.57,0.16 3.73,-5.81 2.36,-3.29 3.92,-4.87 5.77,-6.97 3.27,-16.73 279.83,-486.69 318.85,-555.72 9.03,-15.97 15.06,-24.66 22.26,-41.45 6.81,-15.82 8.29,-35.39 15.08,-49.24 0,-86.28 -33.75,-145.9 -108.09,-180.55 -82.12,-38.28 -170.97,-5.44 -211.86,49.02 -14.71,19.59 -61.79,105.45 -81.39,138.06 -62.29,103.63 -123.82,218.95 -186.45,322.41l-348.23 602.72c-5.14,9.19 -7.46,13.37 -12.74,22.24l-14.9 23.26 -110.52 -560.55c-9.66,-48.32 -15.97,-95.01 -41.6,-126.98 -25.05,-31.25 -57.43,-55.99 -102.48,-66.09 -65.05,-14.59 -119.92,8.91 -162.1,41.16 -18.15,13.89 -46.56,54.25 -50.48,76.37l0 0.02z"/>
   <path class="fil1" d="M2055.39 1157.69l-0.14 1453.57c0.02,70.29 51.09,131.34 110.96,153.02 104.49,37.84 222.8,-17.37 243.67,-132.56 5.83,-32.16 1.69,-1027.24 1.69,-1057.4 0,-354.35 0,-708.68 0,-1063.03 -6.78,13.85 -8.26,33.42 -15.08,49.24 -7.22,16.79 -13.26,25.48 -22.26,41.45 -39.02,69.03 -315.57,538.98 -318.85,555.72l0.02 0z"/>
   <path class="fil1" d="M1069.4 1415.3c-11.36,-86.99 -37.4,-190.97 -54.75,-279.37 -8.96,-45.66 -17.79,-91.62 -27.17,-137.85 -12.2,-60.08 -21.01,-83.38 -6.74,-145.7l-8.19 11.29c-4.04,6.34 -4.93,8.28 -8.09,14.15 -4.93,9.16 -9.67,16.7 -15.32,26.02l-90.72 157.36c-19.99,36.63 -40.38,68.27 -60.43,104.95 -10.17,18.61 -20.74,34.99 -30.56,52.14 -10.7,18.72 -20.14,35.4 -30.98,54.9l-273.52 473.88c-87.05,155.75 -185.82,317 -273.52,473.89 -10.39,18.6 -20.36,33.73 -30.59,52.11 -26.86,48.28 -139.25,235.24 -150.58,269.25 -15.79,47.39 -7.52,102.69 13.37,137.09 21.15,34.86 49.24,61.03 87.32,78.07 48.57,21.72 90.12,20.92 138.02,4.45 37.9,-13.03 70.85,-46.43 88.89,-79.67l182.75 -316.57c21.58,-35.9 39.97,-71.17 61.62,-106.94l121.25 -209.51c40.37,-72.23 81.73,-139.65 122.07,-211.88l91.02 -157.07c10.85,-19.49 20.27,-36.18 30.98,-54.9l106.15 -183.27c5.67,-9.6 10.2,-21.27 17.7,-26.8l0.02 -0.01z"/>
   <path class="fil0" d="M1734.13 480.25c0,81.33 11.96,164.26 44.52,225.8 8.2,-6 16.67,-24.84 22.43,-34.81l149.3 -267.34c25.35,-49.08 56.92,-101.79 100.85,-134.51 94.77,-70.57 196.55,-80.67 304.95,-35.9 20.83,8.6 47.48,25.98 64.1,40.85 22.13,19.8 33.07,28.17 51.72,56.42 10.91,16.53 16.76,27.34 26.51,46.63 43.91,86.85 31.95,177.94 -8.67,260.65 -10.48,21.31 -8.31,252.36 -8.31,290.65 12.64,-1.06 40.77,-22.59 51.83,-30.87 82.8,-62.03 143.83,-148.19 176.02,-246.98 57.58,-176.78 8.39,-371.67 -122.09,-502.16 -10.23,-10.23 -19.33,-20.77 -30.75,-29.68 -100.32,-78.39 -189.14,-119.01 -332.61,-119.01 -68.46,0 -151.56,21.96 -197.24,44.48 -46.44,22.91 -72.45,37.6 -111.74,69.54 -105.33,85.6 -180.82,228.36 -180.82,366.23l0.01 0.01z"/>
  </g>
  <path class="fil2" d="M3208.86 2694.7c89.2,54.27 192.11,81.41 308.71,81.41 113.8,0 217.76,-27.14 311.88,-81.41 94.12,-54.27 168.23,-128.38 222.32,-222.32 54.08,-93.94 81.13,-197.27 81.13,-309.99 0,-112.72 -27.05,-216.05 -81.13,-309.99 -54.09,-93.94 -128.19,-168.04 -222.32,-222.32 -94.12,-54.27 -198.08,-81.41 -311.88,-81.41 -116.6,0 -219.51,26.79 -308.71,80.37 -89.21,53.58 -159.1,129.08 -209.68,226.49l0 -772.35 -107.47 0 0 1669.96 107.47 0 0 -285.98c50.58,97.42 120.47,173.26 209.68,227.53zm563.69 -86.63c-78.67,45.23 -165.77,67.84 -261.3,67.84 -94.12,0 -180.17,-22.62 -258.14,-67.84 -77.97,-45.23 -139.78,-107.15 -185.44,-185.78 -45.66,-78.63 -68.49,-165.26 -68.49,-259.89 0,-94.63 22.83,-181.26 68.49,-259.89 45.66,-78.63 107.47,-140.56 185.44,-185.78 77.97,-45.23 164.02,-67.84 258.14,-67.84 95.53,0 182.63,22.61 261.3,67.84 78.67,45.23 140.84,107.15 186.49,185.78 45.66,78.63 68.48,165.26 68.48,259.89 0,94.63 -22.83,181.26 -68.48,259.89 -45.66,78.63 -107.82,140.56 -186.49,185.78zm616.38 -1318.23c14.75,15.31 34.07,22.96 57.94,22.96 23.88,0 43.56,-7.65 59.01,-22.96 15.45,-15.31 23.18,-34.79 23.18,-58.45 0,-23.66 -7.73,-43.14 -23.18,-58.45 -15.45,-15.31 -35.12,-22.96 -59.01,-22.96 -22.47,0 -41.44,7.65 -56.9,22.96 -15.45,15.31 -23.18,34.79 -23.18,58.45 0,23.66 7.38,43.14 22.13,58.45zm112.73 1463.31l0 -1181.5 -107.47 0 0 1181.5 107.47 0zm969.34 0l0 -98.11 -592.14 0 587.92 -1068.78 0 -14.61 -716.47 0 0 98.11 558.42 0 -587.93 1068.78 0 14.61 750.18 0zm221.26 0l107.47 0 0 -690.95c0,-79.32 16.86,-150.29 50.58,-212.92 33.72,-62.62 79.72,-111.68 138.03,-147.17 58.3,-35.49 123.97,-53.23 197.03,-53.23 53.38,0 104.31,12.52 152.77,37.57 48.47,25.05 87.45,60.89 116.96,107.51 29.5,46.62 44.25,101.94 44.25,165.95l0 793.24 107.47 0 0 -695.12c0,-77.93 16.86,-148.21 50.58,-210.83 33.72,-62.62 80.08,-111.33 139.08,-146.12 59.01,-34.79 125.03,-52.19 198.09,-52.19 53.38,0 104.66,12.52 153.83,37.57 49.17,25.05 88.86,61.23 119.06,108.55 30.2,47.32 45.3,102.29 45.3,164.91l0 793.24 105.37 0 0 -793.24c0,-83.5 -19.32,-156.56 -57.95,-219.18 -38.63,-62.62 -90.26,-110.29 -154.89,-142.99 -64.62,-32.7 -134.86,-49.05 -210.72,-49.05 -89.91,0 -172.8,21.57 -248.66,64.71 -75.86,43.14 -132.76,100.9 -170.69,173.26 -30.91,-73.76 -80.78,-131.86 -149.62,-174.3 -68.84,-42.45 -144.7,-63.67 -227.58,-63.67 -85.7,0 -162.96,19.14 -231.8,57.41 -68.83,38.27 -124.33,94.28 -166.47,168.04l0 -202.48 -107.47 0 0 1181.5zm2275.85 -58.45c94.12,54.27 198.08,81.41 311.87,81.41 116.6,0 219.51,-26.79 308.71,-80.37 89.21,-53.58 159.1,-129.07 209.67,-226.49l0 283.9 107.47 0 0 -1181.5 -107.47 0 0 285.98c-50.58,-97.42 -120.46,-173.26 -209.67,-227.53 -89.21,-54.27 -192.11,-81.41 -308.71,-81.41 -113.79,0 -217.75,27.14 -311.87,81.41 -94.13,54.27 -168.23,128.38 -222.32,222.32 -54.09,93.93 -81.13,197.27 -81.13,309.99 0,112.72 27.05,216.05 81.13,309.99 54.09,93.94 128.19,168.04 222.32,222.32zm576.33 -86.63c-77.97,45.23 -164.01,67.84 -258.14,67.84 -95.52,0 -182.62,-22.62 -261.3,-67.84 -78.67,-45.23 -140.84,-107.15 -186.5,-185.78 -45.65,-78.63 -68.48,-165.26 -68.48,-259.89 0,-94.63 22.83,-181.26 68.48,-259.89 45.66,-78.63 107.82,-140.56 186.5,-185.78 78.67,-45.23 165.77,-67.84 261.3,-67.84 94.13,0 180.18,22.61 258.14,67.84 77.97,45.23 139.79,107.15 185.44,185.78 45.66,78.63 68.49,165.26 68.49,259.89 0,94.63 -22.83,181.26 -68.49,259.89 -45.65,78.63 -107.47,140.56 -185.44,185.78zm702.78 145.08l107.47 0 0 -707.65c0,-57.06 8.43,-110.29 25.29,-159.69 16.86,-49.4 40.74,-90.8 71.65,-124.2 29.5,-32.01 63.57,-57.06 102.2,-75.15 38.63,-18.09 79.72,-27.14 123.28,-27.14 47.76,0 92.72,12.53 134.86,37.58l59 -100.2c-51.98,-26.44 -108.87,-39.66 -170.69,-39.66 -78.67,0 -151.02,22.27 -217.05,66.8 -59,40.36 -101.85,94.63 -128.55,162.82l0 -215.01 -107.47 0 0 1181.5zm920.87 0l0 -1669.96 -107.47 0 0 1669.96 107.47 0zm735.44 0l-600.58 -609.54 579.5 -571.96 -132.76 0 -581.61 571.96 600.58 609.54 134.86 0zm322.41 -58.45c91.32,54.27 191.76,81.41 301.34,81.41 110.99,0 212.49,-28.18 304.5,-84.54 92.02,-56.36 164.02,-131.86 216,-226.49l-122.22 0c-43.55,65.41 -100.09,116.9 -169.64,154.47 -69.54,37.57 -145.75,56.36 -228.64,56.36 -85.69,0 -164.37,-20.52 -236.01,-61.58 -71.65,-41.05 -129.95,-97.76 -174.91,-170.13 -44.96,-72.36 -70.24,-152.38 -75.86,-240.06l1078.92 0c1.4,-8.35 2.11,-22.26 2.11,-41.75 0,-112.72 -26.34,-216.05 -79.02,-309.99 -52.68,-93.94 -124.33,-168.04 -214.94,-222.32 -90.61,-54.27 -190.71,-81.41 -300.29,-81.41 -109.58,0 -210.02,27.14 -301.34,81.41 -91.31,54.27 -163.31,128.38 -215.99,222.32 -52.68,93.93 -79.03,197.27 -79.03,309.99 0,112.72 26.34,216.05 79.03,309.99 52.68,93.94 124.68,168.04 215.99,222.32zm788.12 -586.58l-973.56 0c8.43,-86.28 35.12,-164.56 80.08,-234.84 44.96,-70.28 102.91,-125.25 173.85,-164.91 70.94,-39.66 148.56,-59.49 232.85,-59.49 84.3,0 161.91,19.83 232.86,59.49 70.94,39.66 128.89,94.63 173.84,164.91 44.96,70.28 71.65,148.55 80.08,234.84zm501.53 563.61c67.43,69.58 154.53,104.37 261.3,104.37 49.17,0 97.63,-8.35 145.4,-25.05l0 -98.11c-53.38,15.31 -101.85,22.96 -145.4,22.96 -68.84,0 -125.73,-18.79 -170.69,-56.36 -57.6,-50.1 -86.4,-127.34 -86.4,-231.71l0 -718.08 398.27 0 0 -98.11 -398.27 0 0 -340.25 -14.75 0 -90.61 87.67 0 252.58 -227.59 0 0 98.11 227.59 0 0 718.08c0,119.68 33.72,214.31 101.15,283.9z"/>
 </g>
</svg>
